<?xml version="1.0" encoding="utf-8"?>
<!-- Generator: Adobe Illustrator 25.0.1, SVG Export Plug-In . SVG Version: 6.00 Build 0)  -->
<svg version="1.1" id="Capa_1" xmlns="http://www.w3.org/2000/svg" xmlns:xlink="http://www.w3.org/1999/xlink" x="0px" y="0px"
	 viewBox="0 0 590 466" style="enable-background:new 0 0 590 466;" xml:space="preserve">
<style type="text/css">
	.st0{fill:#FFFFFF;}
</style>
<g>
	<g>
		<g>
			<g>
				<g>
					<path class="st0" d="M256.2,368.4l-28.8-10.6l144.1-117.7l66.4-11.8l0.9,0.6L591,328.5L256.2,368.4z M237.8,356.1l19.1,7
						L576.2,325l-139.4-91.2l-63,11.2L237.8,356.1z"/>
				</g>
			</g>
		</g>
		<g>
			<g>
				<g>
					<path class="st0" d="M410.3,296.6c-0.1,0-0.2,0-0.3,0l-89.7-8.9c-1.4-0.1-2.5-1.4-2.3-2.8s1.4-2.4,2.8-2.3l89.7,8.9
						c1.4,0.1,2.5,1.4,2.3,2.8C412.8,295.6,411.7,296.6,410.3,296.6z"/>
				</g>
			</g>
		</g>
		<g>
			<g>
				<g>
					<path class="st0" d="M232.6,412.7c-0.3,0-0.6,0-0.9-0.1c-1-0.3-1.6-1.2-1.7-2.2l-6.2-71.8c0-0.4,0-0.8,0.2-1.2l53.2-130.4
						c0.5-1.3,2-1.9,3.3-1.5l93.1,34.7l-1.8,4.9l-90.7-33.8l-52,127.5l5.7,65.4l40.3-42.5l3.8,3.6l-44.3,46.7
						C234,412.4,233.3,412.7,232.6,412.7z"/>
				</g>
			</g>
		</g>
		<g>
			<g>
				<g>
					<path class="st0" d="M209.6,287.7c-0.6,0-1.3-0.2-1.7-0.7c-1.1-1-1.1-2.6-0.2-3.7l70-77.2c0.6-0.7,1.6-1,2.5-0.8
						c0.9,0.2,1.6,0.8,1.9,1.7l19.9,58.6c0.5,1.4-0.3,2.8-1.6,3.3c-1.4,0.4-2.8-0.3-3.3-1.6l-18.5-54.5l-67,73.9
						C211,287.4,210.3,287.7,209.6,287.7z"/>
				</g>
			</g>
		</g>
		<g>
			<g>
				<g>
					<path class="st0" d="M355.4,238.7c-0.5,0-1.1-0.2-1.5-0.5c-1.2-0.8-1.4-2.5-0.6-3.6L515.3,14.2c0.8-1.1,2.3-1.4,3.4-0.7
						c1.1,0.7,1.6,2.1,1,3.3l-100.4,219c-0.6,1.3-2.1,1.9-3.5,1.3c-1.3-0.6-1.9-2.1-1.3-3.5l89.8-195.9l-147,199.9
						C356.9,238.4,356.2,238.7,355.4,238.7z"/>
				</g>
			</g>
		</g>
		<g>
			<g>
				<g>
					<path class="st0" d="M242,251.9c-0.7,0-1.5-0.3-2-0.9l-82.2-94.7c-0.9-1.1-0.8-2.7,0.3-3.7c1.1-0.9,2.7-0.8,3.7,0.3l82.2,94.7
						c0.9,1.1,0.8,2.7-0.3,3.7C243.3,251.7,242.7,251.9,242,251.9z"/>
				</g>
			</g>
		</g>
		<g>
			<g>
				<g>
					<path class="st0" d="M112.1,217.5c-1,0-1.9-0.5-2.3-1.4L1,0.4l253.8,130.3l44.5,82.4c0.7,1.3,0.2,2.8-1.1,3.5
						c-1.3,0.7-2.8,0.2-3.5-1.1l-43.7-81L12.9,12.4l101.6,201.4c0.6,1.3,0.1,2.8-1.2,3.5C112.9,217.4,112.5,217.5,112.1,217.5z"/>
				</g>
			</g>
		</g>
		<g>
			<g>
				<g>
					<path class="st0" d="M238.4,311.6c-0.5,0-1.1-0.2-1.5-0.5l-105.4-76.9L39.7,290c-1.1,0.7-2.5,0.4-3.3-0.5c-0.8-1-0.8-2.4,0-3.4
						l47.1-56.7c0.7-0.9,1.9-1.2,2.9-0.8l13.1,4.8l31.6-4.9c0.7-0.1,1.5,0,2,0.5l106.7,77.9c1.2,0.8,1.4,2.5,0.6,3.6
						C240,311.2,239.2,311.6,238.4,311.6z M86.3,234.1l-36,43.3l68.7-41.8l-19.4,3c-0.4,0.1-0.9,0-1.3-0.1L86.3,234.1z"/>
				</g>
			</g>
		</g>
		<g>
			<g>
				<g>
					<path class="st0" d="M230.6,411.7C108.9,260.9,109.3,258,109.5,256.6l0.2-1.1l0.9-0.7l3,4.3l-1.5-2.1l2.4-0.7
						c2,4.4,43.3,56.6,83.6,106.9L117,241.3l4.3-2.9l113.5,170.3L230.6,411.7z"/>
				</g>
			</g>
		</g>
		<g>
			<g>
				<g>
					<polygon class="st0" points="134.2,217.7 92.2,220.3 90.2,196 103.1,208.3 113.1,192.1 121.5,207.6 132.3,193.9 					"/>
				</g>
			</g>
			<g>
				<g>
					<path class="st0" d="M92.2,222.9c-1.3,0-2.5-1-2.6-2.4l-2-24.4c-0.1-1.1,0.5-2.1,1.5-2.6c1-0.5,2.1-0.3,2.9,0.5l10.6,10.1
						l8.3-13.4c0.5-0.8,1.3-1.2,2.3-1.2c0.9,0,1.8,0.5,2.2,1.4l6.6,12l8.3-10.6c0.7-0.8,1.8-1.2,2.8-0.9c1,0.3,1.8,1.2,1.8,2.3
						l1.9,23.9c0.1,0.7-0.2,1.4-0.6,1.9c-0.5,0.5-1.1,0.9-1.8,0.9l-42,2.6C92.3,222.9,92.3,222.9,92.2,222.9z M93.3,202.6l1.3,15
						l36.8-2.3l-1.2-14.6l-6.7,8.5c-0.5,0.7-1.4,1.1-2.3,1c-0.9-0.1-1.6-0.6-2.1-1.3l-6.3-11.5l-7.6,12.3c-0.4,0.7-1.1,1.1-1.9,1.2
						c-0.8,0.1-1.6-0.2-2.1-0.7L93.3,202.6z"/>
				</g>
			</g>
		</g>
		<g>
			<g>
				<g>
					
						<rect x="34.3" y="265.9" transform="matrix(0.9143 -0.4051 0.4051 0.9143 -101.7545 56.1955)" class="st0" width="95.2" height="5.2"/>
				</g>
			</g>
		</g>
		<g>
			<g>
				<polygon class="st0" points="65.1,274.9 112.1,256.9 210.4,386.7 200.9,363.1 119,238.7 				"/>
			</g>
		</g>
		<g>
			<g>
				<polygon class="st0" points="207.8,287 275,213.1 239.9,306.9 				"/>
			</g>
		</g>
		<g>
			<g>
				<path class="st0" d="M230.8,359.1c0,0-1.8,49.1,2.4,47.1s44.5-44.6,44.5-44.6L259,365L230.8,359.1z"/>
			</g>
		</g>
	</g>
	<g>
		<g>
			<path class="st0" d="M494.2,249.6c-1.5,0-2.7-1.2-2.7-2.7c0-34.8-8.6-69.4-24.7-99.9c-0.7-1.3-0.2-2.9,1.1-3.6
				c1.3-0.7,2.9-0.2,3.6,1.1c16.6,31.3,25.4,66.7,25.4,102.4C496.8,248.4,495.6,249.6,494.2,249.6z"/>
		</g>
	</g>
	<g>
		<g>
			<path class="st0" d="M435.6,101.5c-0.7,0-1.4-0.3-1.9-0.8c-40.8-43.5-96.2-67.5-155.9-67.5c-43.7,0-85.7,13.1-121.5,37.8
				c-1.2,0.8-2.9,0.5-3.7-0.7c-0.8-1.2-0.5-2.9,0.7-3.7C190,41.3,233,27.9,277.8,27.9c60.3,0,118.5,25.2,159.7,69.2
				c1,1.1,0.9,2.8-0.1,3.8C436.9,101.2,436.2,101.5,435.6,101.5z"/>
		</g>
	</g>
	<g>
		<g>
			<path class="st0" d="M61.4,249.6c-1.5,0-2.7-1.2-2.7-2.7l0-2.6c0.3-25.8,5.1-51.1,14.2-75.1c0.5-1.4,2.1-2.1,3.4-1.5
				c1.4,0.5,2.1,2.1,1.5,3.4c-8.9,23.4-13.5,48-13.8,73.2l0,2.6C64,248.4,62.8,249.6,61.4,249.6z"/>
		</g>
	</g>
	<g>
		<g>
			<path class="st0" d="M277.8,466c-102,0-192-72.2-213.9-171.7c-0.3-1.4,0.6-2.8,2-3.2c1.4-0.3,2.8,0.6,3.2,2
				c21.4,97.1,109.2,167.6,208.7,167.6c77.6,0,149.2-42.2,186.9-110c0.7-1.3,2.3-1.7,3.6-1c1.3,0.7,1.7,2.3,1,3.6
				C430.7,422.8,357.3,466,277.8,466z"/>
		</g>
	</g>
</g>
</svg>
